<svg width="25" height="24" viewBox="0 0 25 24" fill="none" xmlns="http://www.w3.org/2000/svg">
<path d="M13.9438 6.822L13.6638 13.528H11.6338L11.3538 6.822H13.9438ZM12.6838 17.112C12.2638 17.112 11.9184 16.9907 11.6478 16.748C11.3864 16.496 11.2558 16.188 11.2558 15.824C11.2558 15.4507 11.3864 15.138 11.6478 14.886C11.9184 14.634 12.2638 14.508 12.6838 14.508C13.0944 14.508 13.4304 14.634 13.6918 14.886C13.9624 15.138 14.0978 15.4507 14.0978 15.824C14.0978 16.188 13.9624 16.496 13.6918 16.748C13.4304 16.9907 13.0944 17.112 12.6838 17.112Z" fill="#284BB1"/>
<rect x="1.16699" y="0.5" width="23" height="23" rx="11.5" stroke="#284BB1"/>
</svg>
