<svg width="309" height="223" viewBox="0 0 309 223" fill="none" xmlns="http://www.w3.org/2000/svg">
<g clip-path="url(#clip0_30_397)">
<path d="M283.758 131.295C283.506 133.012 283.293 134.087 283.241 134.324C281.914 140.505 279.786 146.488 276.912 152.121C276.094 153.736 275.218 155.328 274.286 156.899C271.566 161.464 268.453 165.785 264.982 169.811C262.884 172.27 260.636 174.654 258.24 176.964C247.911 186.994 235.187 195.571 221.225 202.509C218.603 203.814 215.938 205.058 213.232 206.243C204.668 209.993 195.851 213.141 186.847 215.665C184.982 216.188 183.117 216.684 181.252 217.151C178.004 217.968 174.742 218.701 171.486 219.346C167.088 220.221 162.705 220.942 158.339 221.51C152.745 222.236 147.22 222.696 141.793 222.906C135.314 223.13 128.827 223.021 122.359 222.578C119.041 222.361 115.674 222.054 112.279 221.66H112.254C109.243 221.313 106.212 220.899 103.163 220.418C102.331 220.285 101.499 220.145 100.663 220.006C95.0161 219.039 89.3517 217.832 83.7466 216.377C83.6452 216.352 83.5438 216.328 83.4424 216.296L83.2746 216.254L82.8026 216.129C77.8094 214.81 72.8758 213.292 68.0505 211.568C64.6553 210.357 61.3126 209.041 58.0503 207.621C56.4978 206.949 54.9651 206.251 53.4523 205.527C52.0676 204.869 50.6993 204.188 49.3473 203.486C41.3716 199.354 34.0357 194.521 27.6964 188.951C24.8274 186.437 22.14 183.723 19.6543 180.831C15.8755 176.453 12.682 171.603 10.1541 166.405C8.91093 163.833 7.8523 161.176 6.98617 158.455C6.62485 157.327 6.29501 156.18 5.99663 155.014C4.64695 149.682 3.90101 144.216 3.77281 138.718C3.73784 137.403 3.73784 136.082 3.77281 134.753C3.8837 130.134 4.41622 125.534 5.36375 121.011C7.8778 109.094 13.3709 98.07 22.1718 90.7173C37.326 78.0498 60.7216 77.5892 75.215 78.7966C80.862 79.2677 85.1593 79.9901 87.1034 80.346C89.9741 80.873 92.7853 81.5255 95.628 82.2095C106.163 84.7395 117.143 87.6639 133.129 85.8702C134.793 85.6817 140.594 84.9838 151.213 82.0315C159.147 79.8836 166.899 77.1171 174.399 73.7575L175.396 73.3039C176.245 72.9096 177.063 72.5222 177.864 72.1349L178.473 71.8382C180.084 71.0496 181.619 70.2714 183.06 69.5106L183.214 69.4269L183.805 69.1163C183.825 69.1079 183.843 69.0974 183.861 69.0849C185.98 67.9717 187.969 66.8934 189.913 65.8709L191.116 65.2428C191.396 65.0997 191.676 64.9531 191.955 64.8135L192.529 64.5204C193.697 63.9341 194.858 63.3688 196.025 62.8314C197.868 61.9904 199.76 61.2157 201.774 60.5178C203.361 59.9629 205.022 59.4709 206.798 59.0102C224.407 54.54 250.74 55.9672 267.492 71.4404C281.129 84.0486 284.43 102.286 284.688 115.888C284.79 121.04 284.479 126.192 283.758 131.295Z" fill="#E6EDFA"/>
<path d="M171.476 121.678V219.329C161.689 221.303 151.76 222.489 141.783 222.878C116.258 223.81 84.5754 219.133 58.0399 207.597C53.6322 205.687 49.3289 203.546 45.148 201.183C42.6188 199.75 40.1712 198.237 37.8051 196.646C35.6419 195.199 33.5545 193.687 31.5428 192.109C30.2257 191.07 28.9436 190.003 27.6965 188.909C18.1019 180.482 10.7836 170.365 6.97927 158.42C6.62961 157.293 6.27996 156.149 5.99324 154.983C4.64464 149.661 3.89869 144.205 3.76941 138.718V134.757C3.8803 130.139 4.41282 125.54 5.36036 121.018H30.9903V156.288H35.3785V85.9644H62.5994V191.778H79.2816V104.369L144.259 136.791V121.678C144.259 118.307 145.6 115.074 147.988 112.691C150.377 110.307 153.616 108.968 156.993 108.968H158.741C160.414 108.968 162.07 109.297 163.615 109.936C165.16 110.574 166.564 111.511 167.746 112.691C168.929 113.871 169.867 115.272 170.507 116.814C171.147 118.356 171.476 120.009 171.476 121.678Z" fill="#D8DFF3"/>
<path d="M283.755 120.92V131.309C283.506 133.023 283.293 134.101 283.241 134.335C274.45 175.708 228.83 205.217 181.245 217.141V96.4927H208.463V187.615H212.854V132.946L240.072 121.018V120.92C240.035 118.035 240.573 115.17 241.654 112.494C242.736 109.817 244.339 107.381 246.37 105.327C248.402 103.274 250.822 101.643 253.49 100.531C256.159 99.4177 259.022 98.8446 261.913 98.8446C264.805 98.8446 267.668 99.4177 270.336 100.531C273.004 101.643 275.424 103.274 277.456 105.327C279.488 107.381 281.091 109.817 282.172 112.494C283.253 115.17 283.791 118.035 283.755 120.92Z" fill="#D8DFF3"/>
<path d="M274.286 156.913C271.566 161.478 268.453 165.798 264.982 169.825V162.098C264.982 159.233 268.912 156.913 273.765 156.913H274.286Z" fill="#BDCFD3"/>
<path d="M103.156 220.393C102.324 220.261 101.492 220.121 100.656 219.981C89.5624 218.112 78.6511 215.29 68.0436 211.547L83.946 168.973L103.156 220.393Z" fill="#CAD4EF"/>
<path d="M53.4488 205.506C40.1373 199.162 28.3573 190.982 19.6438 180.806L31.9343 147.899L53.4488 205.506Z" fill="#CAD4EF"/>
<path d="M276.912 152.135C276.094 153.75 275.218 155.342 274.286 156.913C271.565 161.478 268.452 165.798 264.982 169.825C262.87 172.284 260.622 174.668 258.24 176.978C239.855 194.828 213.893 208.078 186.847 215.672C184.982 216.193 183.117 216.687 181.252 217.155C178.005 217.971 174.749 218.703 171.483 219.35C167.089 220.225 162.708 220.946 158.339 221.513C158.973 220.995 159.641 220.521 160.339 220.093C164.371 217.65 169.081 216.349 172.798 213.463C170.871 211.994 172.396 208.926 174.133 207.237C178.284 203.226 183.242 200.143 188.679 198.192C187.805 191.38 195.298 184.959 201.914 186.851C201.955 185.183 202.59 183.584 203.704 182.34C204.818 181.097 206.339 180.289 207.995 180.061C209.651 179.833 211.334 180.2 212.744 181.097C214.154 181.994 215.198 183.361 215.69 184.956C215.973 182.567 216.645 180.24 217.68 178.067C218.585 176.165 221.418 176.322 222.082 178.308C222.08 178.321 222.08 178.334 222.082 178.346C224.274 173.942 231.173 172.92 234.558 176.5C233.376 172.114 238.67 167.535 242.852 169.326C240.845 166.387 240.303 162.283 242.194 159.268C244.086 156.253 248.684 155.056 251.439 157.314C249.481 153.985 251.946 149.019 255.782 148.555C257.744 148.318 259.684 149.071 261.66 149.12C262.68 149.143 263.686 148.875 264.558 148.346C266.744 146.971 269.6 147.177 271.342 149.078C272.524 150.407 273.445 151.946 274.055 153.615C275.048 153.147 275.989 152.634 276.912 152.135Z" fill="#CAD4EF"/>
<path d="M98.5722 66.3629C86.8097 63.8329 74.3479 58.9718 68.5575 48.4435C66.4771 44.6607 65.4281 40.0404 66.9561 36.0064C69.0086 30.5869 75.0612 27.7254 80.8061 26.8948C87.9931 25.87 95.3204 27.152 101.73 30.5555C110.443 35.2142 117.436 43.7639 127.227 45.1388C134.716 46.1857 141.989 42.7344 149.206 40.4661C156.423 38.1979 165.249 37.4336 170.675 42.696C171.969 43.9558 172.186 45.6308 172.312 46.3113C173.361 52.0693 167.654 57.3526 165.588 59.265C162.769 61.8717 156.22 66.7992 135.716 68.4498C124.695 69.3361 113.447 69.556 98.5722 66.3629Z" fill="#E6EDFA"/>
<path d="M70.2884 66.5863H1.44763C0.281817 64.5592 -0.1948 62.2097 0.0891185 59.8897C0.373037 57.5696 1.40222 55.4037 3.02261 53.7162C4.64301 52.0287 6.76744 50.9103 9.07793 50.5285C11.3884 50.1467 13.7607 50.522 15.8396 51.5982C16.0301 49.1854 16.7461 46.8431 17.9374 44.7349C19.1287 42.6268 20.7667 40.8035 22.7371 39.3925C24.7074 37.9814 26.9626 37.0165 29.3451 36.5652C31.7277 36.1138 34.1803 36.1869 36.5317 36.7793C38.883 37.3717 41.0765 38.4692 42.9589 39.9951C44.8414 41.521 46.3675 43.4385 47.4307 45.6138C48.4938 47.7892 49.0685 50.1699 49.1145 52.5898C49.1604 55.0097 48.6767 57.4104 47.6969 59.6244C55.2181 62.0148 62.5959 64.9287 70.2884 66.5863Z" fill="#DAE8EB"/>
<path d="M217.89 88.0931H254.932C255.564 87.0024 255.824 85.7364 255.674 84.4855C255.523 83.2346 254.969 82.0664 254.095 81.1566C253.222 80.2469 252.076 79.6446 250.831 79.4406C249.585 79.2365 248.306 79.4416 247.188 80.025C247.086 78.7259 246.701 77.4647 246.061 76.3294C245.42 75.1941 244.538 74.2122 243.478 73.4523C242.417 72.6924 241.203 72.1728 239.921 71.9299C238.638 71.6871 237.317 71.7267 236.052 72.0461C234.786 72.3656 233.605 72.957 232.592 73.7792C231.58 74.6014 230.759 75.6344 230.188 76.8061C229.617 77.9778 229.309 79.2599 229.286 80.5627C229.263 81.8655 229.525 83.1576 230.054 84.3487C225.998 85.6294 222.03 87.1997 217.89 88.0931Z" fill="#D8DFF3"/>
<path d="M184.06 41.356H277.985C279.584 38.5906 280.24 35.3824 279.855 32.2131C279.471 29.0438 278.067 26.0845 275.853 23.7796C273.64 21.4748 270.737 19.9487 267.581 19.4307C264.424 18.9126 261.185 19.4305 258.349 20.9066C258.081 17.621 257.098 14.4333 255.47 11.5652C253.842 8.69722 251.606 6.21785 248.92 4.29978C246.234 2.38171 243.161 1.07102 239.916 0.458977C236.67 -0.153068 233.33 -0.0517591 230.128 0.755845C226.925 1.56345 223.938 3.05794 221.373 5.13527C218.809 7.2126 216.729 9.82284 215.278 12.7842C213.827 15.7457 213.04 18.9871 212.973 22.2828C212.905 25.5785 213.558 28.8494 214.886 31.8676C204.62 35.1165 194.557 39.0912 184.06 41.356Z" fill="#DAE8EB"/>
<path d="M173.448 218.931C172.791 219.067 172.137 219.203 171.48 219.332C170.931 219.444 170.382 219.549 169.833 219.653C169.441 219.727 169.049 219.803 168.658 219.873C168.186 219.96 167.71 220.048 167.238 220.128C166.888 220.194 166.539 220.254 166.207 220.309L164.895 220.529L163.304 220.788L163.151 220.808L161.612 221.042C160.517 221.203 159.424 221.354 158.336 221.496C157.637 221.587 156.937 221.673 156.238 221.754L154.385 221.964C154.035 222.005 153.685 222.04 153.336 222.072L152.518 222.155L151.514 222.25C151.066 222.295 150.615 222.333 150.168 222.368L149.899 222.393C149.259 222.449 148.619 222.497 147.982 222.543H147.874C147.28 222.585 146.685 222.627 146.091 222.661H145.787L144.273 222.745C143.437 222.791 142.605 222.825 141.776 222.857C139.678 222.934 137.535 222.972 135.346 222.972H133.493C132.94 222.972 132.381 222.972 131.825 222.948H131.125L129.636 222.909H129.562C128.909 222.909 128.255 222.867 127.597 222.839C126.397 222.791 125.191 222.731 123.978 222.661H123.772L123.157 222.623C122.646 222.592 122.132 222.56 121.618 222.522L120.199 222.417C119.397 222.359 118.596 222.293 117.796 222.218L117.006 222.149L116.076 222.061L115.377 221.991C113.992 221.852 112.603 221.698 111.209 221.531C110.597 221.458 109.985 221.384 109.373 221.304L108.065 221.13L107.017 220.986C105.726 220.808 104.436 220.613 103.146 220.411L101.908 220.212L100.656 220.002L99.4499 219.789C98.627 219.645 97.8042 219.494 96.9813 219.336C96.5792 219.263 96.1806 219.186 95.782 219.106C95.4603 219.046 95.1386 218.983 94.8204 218.917L95.5198 208.696L95.9044 203.133H103.919H134.993H171.805L172.469 209.509L173.13 215.839V215.881L173.189 216.478L173.448 218.931Z" fill="#687ED4"/>
<path d="M171.805 203.088L95.5198 208.668L95.9009 203.105L171.805 203.088Z" fill="#4863C9"/>
<path d="M134.713 216.432L136.045 216.439L135.979 203.074L134.643 203.067L134.713 216.432Z" fill="#4863C9"/>
<path d="M137.563 212.43C138.161 212.46 138.759 212.37 139.322 212.167C139.885 211.964 140.402 211.651 140.842 211.247C143.468 208.738 142.297 203.203 142.241 202.969L140.94 203.242C140.94 203.29 141.989 208.284 139.916 210.277C138.993 211.156 137.514 211.324 135.517 210.786L135.167 212.074C135.947 212.296 136.752 212.416 137.563 212.43Z" fill="#4863C9"/>
<path d="M95.268 217.835C96.1736 217.87 97.0762 217.713 97.9168 217.375C98.7574 217.037 99.517 216.525 100.146 215.874C103.936 211.931 102.908 203.43 102.863 203.07L101.53 203.221C101.53 203.301 102.523 211.453 99.1667 214.942C98.0233 216.132 96.5303 216.631 94.6211 216.467L94.5267 217.804C94.7738 217.825 95.0209 217.835 95.268 217.835Z" fill="#4863C9"/>
<path d="M171.735 216.593C172.128 216.593 172.521 216.552 172.906 216.471L172.637 215.169C172.117 215.303 171.572 215.309 171.049 215.188C170.526 215.066 170.041 214.82 169.633 214.471C166.399 211.749 166.556 203.147 166.56 203.06L165.235 203.022C165.235 203.402 165.067 212.36 168.787 215.49C169.604 216.201 170.651 216.592 171.735 216.593Z" fill="#4863C9"/>
<path d="M206.204 150.495L182.298 169.748L171.973 149.159V203.098H95.9044V148.311L84.2188 167.036L60.5819 145.617L84.2957 107.384C86.0438 104.565 88.4846 102.239 91.3864 100.626C94.2883 99.013 97.555 98.1668 100.877 98.1677H166.389C169.308 98.1673 172.19 98.8215 174.822 100.082C177.454 101.343 179.769 103.177 181.595 105.451C182.342 106.377 183.001 107.37 183.564 108.417L206.204 150.495Z" fill="#9ACEDB"/>
<path d="M153.937 63.648C153.937 63.648 155.598 71.3252 154.147 72.8362C152.696 74.3473 146.972 59.5581 153.937 63.648Z" fill="#32477B"/>
<path d="M132.342 54.6167L151.99 60.4689C159.93 92.5912 145.877 92.3888 145.877 92.3888L146.346 97.3721C146.488 98.8648 146.308 100.371 145.816 101.788C145.325 103.205 144.534 104.5 143.498 105.585C142.462 106.671 141.204 107.522 139.809 108.08C138.415 108.639 136.917 108.891 135.416 108.822C134.038 108.762 132.685 108.432 131.435 107.85C130.185 107.268 129.063 106.446 128.131 105.43C127.2 104.415 126.479 103.226 126.009 101.932C125.538 100.638 125.329 99.2637 125.391 97.8886L126.356 76.3364L122.587 76.1689C121.072 76.101 119.645 75.4353 118.622 74.3183C117.598 73.2012 117.061 71.7242 117.129 70.212C117.129 70.0027 117.157 69.7968 117.185 69.5944C117.429 67.8026 118.377 66.1813 119.82 65.0871C121.263 63.9929 123.082 63.5154 124.877 63.7597L126.853 64.0284L132.342 54.6167Z" fill="#FFC1C2"/>
<path d="M152.85 63.8643H152.769C146.126 64.2412 138.192 62.9082 134.612 62.2102C134.101 62.1154 133.572 62.1984 133.116 62.4455C132.659 62.6926 132.3 63.0887 132.101 63.5677C131.164 65.7418 129.58 67.6925 128.332 69.0221C128.192 69.1711 128.01 69.2735 127.81 69.3154C127.61 69.3573 127.402 69.3365 127.214 69.256C127.026 69.1755 126.868 69.0391 126.761 68.8654C126.653 68.6918 126.603 68.4893 126.615 68.2857L126.807 64.9461C126.823 64.6955 126.743 64.4483 126.583 64.2541C126.424 64.0599 126.196 63.9331 125.947 63.8992L124.898 63.7527C123.103 63.5084 121.285 63.9854 119.842 65.0789C118.4 66.1723 117.451 67.7928 117.206 69.5839C117.178 69.7898 117.16 69.9957 117.15 70.2051C117.15 70.2923 117.15 70.3761 117.15 70.4633C117.151 71.9325 117.72 73.3447 118.737 74.4061C119.755 75.4675 121.144 76.0964 122.615 76.1619L126.384 76.3294L125.975 85.42C104.023 60.3223 121.405 47.9515 121.405 47.9515C121.366 45.8228 123.153 45.1981 124.8 45.0655C125.938 44.9948 127.072 45.2645 128.055 45.8402C131.531 47.7735 137.29 43.7953 143.346 42.2668C145.664 41.684 154.185 39.5344 157.783 43.3137C162.644 48.4924 157.427 63.5677 152.85 63.8643Z" fill="#32477B"/>
<path d="M120.304 70.9728C120.304 70.9518 119.758 69.029 120.716 67.9054C121.356 67.1586 122.548 66.8864 124.262 67.0958L124.391 66.0489C122.293 65.7941 120.786 66.1919 119.905 67.2284C118.573 68.7952 119.255 71.1752 119.286 71.2764L120.304 70.9728Z" fill="#ED9C9C"/>
<path d="M150.231 77.5996L146.815 70.2469L145.85 70.6936L148.836 77.1181L144.825 79.163L145.308 80.1087L150.231 77.5996Z" fill="#ED9C9C"/>
<path d="M151.255 70.1073C151.329 70.8576 151.741 71.4299 152.182 71.388C152.622 71.3462 152.913 70.6901 152.839 69.9538C152.828 69.8054 152.798 69.659 152.752 69.5176C152.698 69.3116 152.601 69.1191 152.469 68.9523C152.142 68.9296 151.813 68.9296 151.486 68.9523C151.375 69.1192 151.302 69.3087 151.273 69.5071C151.239 69.7054 151.234 69.9074 151.255 70.1073Z" fill="#32477B"/>
<path d="M135.556 66.1745C135.548 66.1359 135.548 66.0963 135.556 66.0579C135.564 66.0194 135.579 65.9829 135.601 65.9504C135.624 65.918 135.652 65.8902 135.685 65.8688C135.718 65.8473 135.755 65.8326 135.793 65.8255L141.636 64.6181C141.936 64.5558 142.248 64.5985 142.52 64.739C142.792 64.8794 143.007 65.1091 143.129 65.3893L143.248 65.665C143.304 65.7897 143.328 65.9264 143.318 66.0628C143.31 66.1744 143.281 66.2834 143.231 66.3836C143.181 66.4838 143.112 66.5733 143.028 66.6468C142.944 66.7204 142.845 66.7766 142.739 66.8124C142.633 66.8481 142.521 66.8625 142.409 66.855L135.835 66.4153C135.769 66.4119 135.705 66.3864 135.654 66.3428C135.603 66.2992 135.569 66.2399 135.556 66.1745Z" fill="#32477B"/>
<path d="M154.664 65.4347C154.67 65.3654 154.649 65.2966 154.604 65.2431C154.56 65.1896 154.496 65.1556 154.427 65.1485L149.224 64.6425C148.959 64.6149 148.693 64.6784 148.47 64.8225C148.247 64.9666 148.08 65.1826 147.996 65.4347L147.92 65.6859C147.883 65.7985 147.875 65.9183 147.895 66.0349C147.912 66.1311 147.948 66.223 148 66.3053C148.053 66.3876 148.121 66.4587 148.202 66.5145C148.282 66.5703 148.372 66.6097 148.468 66.6304C148.564 66.6511 148.663 66.6527 148.759 66.6351L154.448 65.6441C154.501 65.6357 154.55 65.6111 154.589 65.5736C154.628 65.5361 154.654 65.4876 154.664 65.4347Z" fill="#32477B"/>
<path d="M146.353 97.4454C142.23 96.9179 138.418 94.9776 135.57 91.9561C138.717 93.167 145.878 92.4133 145.878 92.4133L146.353 97.4454Z" fill="#ED9C9C"/>
<path d="M179.955 37.0567C178.288 36.4737 176.471 36.4811 174.808 37.0777C174.608 37.1463 174.426 37.2574 174.273 37.4033C174.12 37.5492 174.001 37.7265 173.923 37.923C173.846 38.1194 173.812 38.3302 173.824 38.541C173.836 38.7517 173.894 38.9573 173.994 39.1435V39.1715C174.16 39.4767 174.429 39.7138 174.753 39.8414C175.077 39.9689 175.436 39.9789 175.766 39.8694C176.634 39.5727 177.577 39.5727 178.445 39.8694C180.074 40.4487 180.658 41.8027 180.127 43.2962C179.273 45.7041 175.231 46.1368 173.427 49.1345C173.212 49.524 173.156 49.9816 173.271 50.4114C173.386 50.8412 173.663 51.2101 174.044 51.4409C174.425 51.6716 174.881 51.7464 175.316 51.6495C175.751 51.5526 176.131 51.2917 176.378 50.9212C178.064 47.9933 182.469 47.8398 183.721 44.2908C184.962 40.8605 183.252 38.2153 179.955 37.0567ZM173.528 53.8804C173.045 53.6835 172.514 53.6354 172.003 53.7423C171.492 53.8492 171.025 54.1062 170.662 54.4802C170.299 54.8542 170.056 55.3282 169.965 55.8411C169.873 56.354 169.938 56.8824 170.15 57.3583C170.363 57.8342 170.713 58.2359 171.155 58.5116C171.598 58.7873 172.114 58.9245 172.635 58.9055C173.157 58.8865 173.661 58.7122 174.082 58.405C174.504 58.0978 174.824 57.6717 175.001 57.1816C175.129 56.8692 175.193 56.534 175.188 56.1963C175.183 55.8586 175.109 55.5254 174.972 55.2169C174.834 54.9083 174.635 54.6308 174.387 54.4011C174.139 54.1714 173.847 53.9942 173.528 53.8804Z" fill="#32477B"/>
<path d="M99.0373 51.2876C97.8654 51.6859 96.8666 52.4745 96.2085 53.521C96.1275 53.6448 96.0744 53.7848 96.053 53.9312C96.0317 54.0776 96.0425 54.2269 96.0847 54.3687C96.127 54.5105 96.1997 54.6414 96.2977 54.7523C96.3958 54.8632 96.5169 54.9515 96.6526 55.0111H96.6736C96.8983 55.1055 97.1491 55.1189 97.3826 55.0488C97.6162 54.9788 97.818 54.8297 97.9533 54.6272C98.3022 54.0878 98.8215 53.68 99.4289 53.4686C100.579 53.0848 101.488 53.5803 101.842 54.6342C102.415 56.3301 100.38 58.3123 100.677 60.7481C100.704 60.9648 100.79 61.1699 100.925 61.3413C101.08 61.5386 101.292 61.6832 101.533 61.755C101.773 61.8269 102.03 61.8226 102.268 61.7426C102.533 61.6576 102.76 61.4825 102.909 61.2478C103.057 61.0131 103.119 60.7338 103.083 60.4584C102.733 58.1169 105.104 56.1277 104.261 53.6222C103.45 51.2213 101.352 50.5059 99.0373 51.2876ZM102.786 63.3409C102.433 63.4409 102.119 63.6439 101.883 63.9237C101.647 64.2035 101.501 64.5474 101.462 64.9111C101.424 65.2747 101.495 65.6416 101.667 65.9643C101.84 66.2871 102.105 66.551 102.429 66.7221C102.752 66.8933 103.12 66.9638 103.484 66.9246C103.849 66.8855 104.193 66.7384 104.473 66.5023C104.753 66.2663 104.955 65.952 105.055 65.6001C105.154 65.2481 105.146 64.8745 105.03 64.5274C104.967 64.2987 104.857 64.0854 104.708 63.9005C104.559 63.7155 104.374 63.5629 104.164 63.4518C103.954 63.3407 103.723 63.2736 103.486 63.2546C103.249 63.2355 103.011 63.2649 102.786 63.3409Z" fill="#32477B"/>
<path d="M146.724 84.9768L146.954 84.0485C144.573 83.4545 142.132 83.1268 139.678 83.0714L139.657 84.0276C142.041 84.0788 144.411 84.3972 146.724 84.9768Z" fill="#ED9C9C"/>
<path d="M148.206 69.542H148.245L153.797 69.2942C153.896 69.2871 153.987 69.2418 154.053 69.1681C154.118 69.0944 154.152 68.9982 154.147 68.8999C154.138 68.8024 154.092 68.712 154.019 68.6471C153.945 68.5823 153.85 68.5479 153.752 68.5509L148.199 68.7987C148.099 68.7987 148.003 68.8384 147.932 68.9091C147.861 68.9798 147.822 69.0756 147.822 69.1756C147.822 69.2755 147.861 69.3714 147.932 69.4421C148.003 69.5128 148.099 69.5525 148.199 69.5525L148.206 69.542Z" fill="#32477B"/>
<path d="M139.849 70.1911C139.919 70.9414 140.335 71.5171 140.772 71.4753C141.21 71.4334 141.507 70.7773 141.433 70.0375C141.421 69.8893 141.392 69.7429 141.346 69.6013C141.292 69.3945 141.194 69.2017 141.059 69.036C140.733 69.0168 140.406 69.0168 140.08 69.036C139.97 69.2046 139.897 69.395 139.867 69.5943C139.834 69.7915 139.828 69.9923 139.849 70.1911Z" fill="#32477B"/>
<path d="M136.898 69.699H136.933L142.486 69.4513C142.535 69.4492 142.584 69.4374 142.629 69.4166C142.674 69.3957 142.715 69.3662 142.748 69.3298C142.782 69.2933 142.808 69.2506 142.825 69.2041C142.842 69.1576 142.85 69.1082 142.848 69.0587C142.846 69.0092 142.834 68.9606 142.813 68.9156C142.792 68.8707 142.763 68.8303 142.726 68.7968C142.689 68.7632 142.647 68.7372 142.6 68.7202C142.553 68.7031 142.504 68.6954 142.454 68.6975L136.902 68.9418C136.807 68.9508 136.72 68.9946 136.656 69.0646C136.592 69.1346 136.557 69.2258 136.557 69.3204C136.557 69.415 136.592 69.5062 136.656 69.5762C136.72 69.6462 136.807 69.69 136.902 69.699H136.898Z" fill="#32477B"/>
<path d="M171.976 135.584L182.298 169.748L171.976 149.141V135.584Z" fill="#579FAE"/>
<path d="M95.9044 135.584L84.2223 167.036L95.9044 148.328V135.584Z" fill="#579FAE"/>
<path d="M172.399 132.059H171.553V149.141H172.399V132.059Z" fill="#579FAE"/>
<path d="M96.3309 132.059H95.4847V149.141H96.3309V132.059Z" fill="#579FAE"/>
<path d="M81.7328 164.782L74.6836 174.166C73.9178 175.186 72.933 176.023 71.8013 176.615C70.6696 177.207 69.4197 177.539 68.1429 177.586C66.8662 177.634 65.5949 177.396 64.4222 176.89C63.2495 176.383 62.205 175.622 61.3652 174.661L16.5215 123.339L30.8575 110.64L81.7328 164.782Z" fill="#FFC1C2"/>
<path d="M182.822 169.263L189.595 178.42C190.373 179.473 191.38 180.338 192.54 180.95C193.699 181.561 194.982 181.904 196.293 181.952C197.604 182 198.908 181.752 200.11 181.227C201.311 180.702 202.379 179.913 203.232 178.919L247.457 127.502L234.114 115.49L182.822 169.263Z" fill="#FFC1C2"/>
<path d="M307.362 72.9184L271.125 46.1183C269.317 44.7815 266.766 45.1602 265.426 46.9641L227.898 97.5072C226.558 99.3111 226.938 101.857 228.745 103.194L264.982 129.994C266.79 131.331 269.341 130.952 270.681 129.148L308.209 78.6053C309.549 76.8013 309.169 74.2552 307.362 72.9184Z" fill="#687ED4"/>
<path d="M264.37 124.476L232.698 101.926C231.477 101.057 231.4 99.5252 232.509 98.5027C247.123 85.0306 259.072 68.9388 267.733 51.0642C267.859 50.7589 268.054 50.487 268.303 50.2703C268.553 50.0536 268.849 49.898 269.17 49.816C269.49 49.7339 269.825 49.7277 270.148 49.7978C270.471 49.8679 270.773 50.0124 271.031 50.2197L300.794 72.2325C301.371 72.69 301.783 73.3226 301.968 74.0347C302.153 74.7469 302.1 75.4997 301.818 76.1794C293.783 94.0895 282.492 110.358 268.517 124.162C267.961 124.67 267.25 124.978 266.498 125.035C265.746 125.092 264.996 124.895 264.37 124.476Z" fill="#4863C9"/>
<path d="M263.594 122.208L233.894 100.223C232.708 99.3472 232.652 97.8397 233.743 96.8312C247.837 83.8213 259.367 68.2937 267.737 51.0503C268.387 49.7137 269.835 49.3299 271.034 50.2058L300.755 72.1907C301.343 72.6561 301.759 73.3031 301.938 74.0302C302.117 74.7572 302.049 75.523 301.745 76.2073C293.375 93.4507 281.845 108.978 267.751 121.988C267.182 122.482 266.463 122.772 265.71 122.811C264.957 122.851 264.212 122.639 263.594 122.208Z" fill="white"/>
<path d="M294.138 62.6143L283.648 54.7626C283.093 54.3474 282.306 54.4596 281.89 55.0131L278.414 59.639C277.998 60.1925 278.111 60.9778 278.665 61.3929L289.155 69.2447C289.71 69.6598 290.496 69.5476 290.912 68.9941L294.389 64.3682C294.805 63.8147 294.692 63.0295 294.138 62.6143Z" fill="#4863C9"/>
<path d="M292.804 79.7109L269.538 62.4894C269.42 62.3993 269.322 62.2859 269.25 62.1563C269.179 62.0267 269.134 61.8837 269.121 61.7362C269.107 61.5888 269.124 61.4401 269.17 61.2995C269.217 61.1589 269.292 61.0293 269.391 60.9191C269.468 60.7922 269.57 60.6826 269.691 60.5971C269.813 60.5116 269.95 60.4521 270.096 60.4223C270.241 60.3925 270.391 60.393 270.537 60.4238C270.682 60.4547 270.819 60.5152 270.94 60.6015L294.224 77.823C294.489 78.0107 294.673 78.2923 294.738 78.6106C294.803 78.9289 294.744 79.26 294.573 79.5364C294.358 79.7871 294.053 79.9452 293.724 79.9776C293.394 80.0101 293.065 79.9146 292.804 79.7109Z" fill="#4863C9"/>
<path d="M286.993 89.5866L263.709 72.3651C263.591 72.275 263.493 72.1616 263.422 72.032C263.35 71.9024 263.306 71.7594 263.292 71.612C263.278 71.4645 263.295 71.3158 263.341 71.1752C263.388 71.0346 263.463 70.9051 263.562 70.7948C263.639 70.668 263.741 70.5584 263.862 70.4729C263.984 70.3874 264.121 70.3278 264.267 70.298C264.412 70.2682 264.562 70.2687 264.708 70.2996C264.853 70.3304 264.99 70.3909 265.111 70.4772L288.395 87.6987C288.66 87.8864 288.844 88.168 288.909 88.4864C288.974 88.8047 288.915 89.1357 288.744 89.4121C288.529 89.6579 288.228 89.8128 287.903 89.8452C287.578 89.8776 287.252 89.7851 286.993 89.5866Z" fill="#4863C9"/>
<path d="M280.199 98.7365L256.915 81.515C256.797 81.4249 256.699 81.3115 256.628 81.1819C256.556 81.0523 256.512 80.9093 256.498 80.7619C256.484 80.6144 256.501 80.4657 256.548 80.3251C256.594 80.1845 256.669 80.055 256.768 79.9447C256.845 79.8179 256.947 79.7083 257.069 79.6228C257.19 79.5373 257.328 79.4777 257.473 79.4479C257.619 79.4181 257.769 79.4186 257.914 79.4495C258.059 79.4803 258.196 79.5408 258.317 79.6271L281.601 96.8416C281.867 97.0293 282.051 97.311 282.116 97.6293C282.181 97.9476 282.122 98.2787 281.951 98.5551C281.736 98.8019 281.436 98.9581 281.111 98.9918C280.785 99.0255 280.459 98.9342 280.199 98.7365Z" fill="#4863C9"/>
<path d="M256.404 123.66C253.369 126.301 249.257 129.296 245.827 129.749C239.478 130.597 233.404 117.612 233.404 117.612C233.404 117.612 233.369 114.304 235.477 108.19C236.054 106.515 236.792 104.627 237.733 102.54C237.947 102.064 238.32 101.677 238.787 101.444C239.255 101.21 239.789 101.145 240.299 101.26L245.138 102.338L246.52 102.645C246.595 102.661 246.669 102.684 246.74 102.715C246.93 102.793 247.1 102.914 247.235 103.068C247.371 103.223 247.469 103.406 247.521 103.605C247.573 103.804 247.578 104.012 247.536 104.213C247.494 104.414 247.406 104.602 247.278 104.763C246.681 105.506 245.646 106.257 243.873 106.473C243.47 106.524 243.065 106.548 242.659 106.543C242.659 106.543 242.782 107.049 242.876 107.782C243.065 109.293 243.138 111.76 241.75 112.58L241.778 112.604L252.943 121.081L254.135 121.988L256.404 123.66Z" fill="#FFC1C2"/>
<path d="M203.197 147.909L185.997 173.551L182.826 169.266L203.197 147.909Z" fill="#ED9C9C"/>
<path d="M62.9945 144.849L79.3445 167.961L81.7327 164.782L62.9945 144.849Z" fill="#ED9C9C"/>
<path d="M39.3763 85.5706L38.7917 84.8397C38.1279 84.0098 36.9156 83.8741 36.084 84.5366L3.07635 110.834C2.24477 111.497 2.10879 112.707 2.77263 113.536L3.35725 114.267C4.02109 115.097 5.23336 115.233 6.06493 114.57L39.0726 88.2729C39.9042 87.6104 40.0402 86.4005 39.3763 85.5706Z" fill="#9BCFDC"/>
<path d="M29.2273 95.6882L26.6553 92.4727C25.9265 91.5615 24.5954 91.4125 23.6823 92.1399L2.1135 109.324C1.20043 110.051 1.05113 111.38 1.78002 112.291L4.35195 115.507C5.08084 116.418 6.41191 116.567 7.32497 115.839L28.8938 98.6553C29.8069 97.9279 29.9562 96.5994 29.2273 95.6882Z" fill="#32477B"/>
<path d="M46.1305 95.3585C54.8533 95.3585 61.9246 88.3013 61.9246 79.5957C61.9246 70.8902 54.8533 63.8329 46.1305 63.8329C37.4077 63.8329 30.3364 70.8902 30.3364 79.5957C30.3364 88.3013 37.4077 95.3585 46.1305 95.3585Z" fill="#9BCFDC"/>
<path d="M46.1305 92.5354C53.291 92.5354 59.0958 86.7421 59.0958 79.5957C59.0958 72.4494 53.291 66.6561 46.1305 66.6561C38.9699 66.6561 33.1652 72.4494 33.1652 79.5957C33.1652 86.7421 38.9699 92.5354 46.1305 92.5354Z" fill="#32477B"/>
<path d="M36.4275 76.3468C36.3277 76.2209 36.2642 76.0702 36.2439 75.9109C36.2236 75.7517 36.2471 75.5899 36.3121 75.443C37.4056 72.9562 39.401 70.9742 41.8978 69.8946C44.3946 68.815 47.2082 68.7177 49.7739 69.6223C49.9885 69.7042 50.1625 69.8666 50.2589 70.0748C50.3552 70.283 50.3662 70.5206 50.2896 70.7368C50.213 70.953 50.0548 71.1307 49.8487 71.2322C49.6426 71.3336 49.405 71.3507 49.1865 71.2799C47.0412 70.5184 44.6865 70.5962 42.5963 71.4974C40.5061 72.3987 38.8354 74.0566 37.9205 76.1375C37.8263 76.3507 37.6511 76.5179 37.4334 76.6023C37.2157 76.6867 36.9734 76.6814 36.7596 76.5876C36.6323 76.5331 36.5188 76.4508 36.4275 76.3468Z" fill="white"/>
<path d="M36.3156 83.8322L36.2737 83.7763C35.7809 83.0372 35.4506 82.2022 35.3048 81.3264C35.1589 80.4506 35.2008 79.5539 35.4275 78.6954C35.5054 78.4843 35.6614 78.311 35.8634 78.2112C36.0654 78.1114 36.298 78.0927 36.5135 78.1588C36.7289 78.225 36.9107 78.371 37.0216 78.5669C37.1324 78.7628 37.1638 78.9936 37.1094 79.2119C36.9546 79.8172 36.9284 80.4482 37.0326 81.0642C37.1368 81.6802 37.369 82.2677 37.7143 82.7888C37.8204 82.9748 37.8548 83.1931 37.8112 83.4027C37.7675 83.6123 37.6488 83.7988 37.4772 83.9273C37.3056 84.0557 37.0929 84.1173 36.8791 84.1004C36.6652 84.0836 36.4649 83.9894 36.3156 83.8357V83.8322Z" fill="white"/>
<path d="M33.8959 113.801L31.6196 111.582C31.1078 111.084 30.7675 110.436 30.6476 109.732C30.0497 106.243 27.8713 95.39 23.8432 94.7479L22.2138 93.1182C21.5145 91.9177 19.4166 91.6421 18.2382 92.4412C17.2277 93.1391 16.2277 94.5001 16.7627 95.5993L16.8116 95.4598C16.8116 95.4598 12.0458 95.5156 11.5493 98.1642C11.5493 98.1642 7.35336 97.6373 6.76244 101.158C6.1855 101.116 4.31483 101.047 3.04557 102.324C2.66391 102.732 2.37001 103.215 2.18191 103.741C1.96512 104.372 1.4826 106.532 8.76947 115.344C10.6017 117.563 11.5458 118.701 12.9409 119.996C14.6018 121.535 15.3431 121.904 16.7032 123.464C17.3046 124.162 20.6194 127.177 20.6194 127.177L24.4272 131.738L33.8959 113.801Z" fill="#FFC1C2"/>
<path d="M21.3625 102.131L20.6163 102.586L21.7947 104.513L22.5409 104.059L21.3625 102.131Z" fill="#E29474"/>
<path d="M22.2489 108.867C21.9837 109.142 21.6664 109.361 21.3153 109.513C20.3153 109.945 19.0915 109.767 17.6788 108.993L18.0984 108.228C19.2628 108.867 20.2313 109.031 20.9726 108.714C21.9342 108.302 22.3713 107.129 22.5391 106.466L23.3853 106.686C23.1972 107.497 22.8062 108.248 22.2489 108.867Z" fill="#ED9C9C"/>
<path d="M24.6894 109.171C23.8712 108.864 23.1544 108.05 22.5635 106.756C22.2224 105.99 21.952 105.194 21.7558 104.379C21.5775 103.681 21.4551 103.067 21.3817 102.634L18.6893 104.163C17.7496 104.823 16.6212 105.162 15.4725 105.13C12.8185 104.997 11.1332 102.662 11.0633 102.565L10.7905 102.181L23.616 94.3745L24.0705 95.1178L12.0773 102.425C12.6227 103.029 13.871 104.17 15.5144 104.264C16.4877 104.283 17.4412 103.989 18.2347 103.427L22.081 101.242L22.1614 101.891C22.2662 102.659 22.4169 103.42 22.6125 104.17C22.7966 104.936 23.0493 105.683 23.3677 106.403C23.8608 107.478 24.4167 108.148 25.0076 108.361L24.6894 109.171Z" fill="#ED9C9C"/>
<path d="M17.4691 111.233C17.3858 111.318 17.2958 111.396 17.1998 111.467C16.3781 112.088 15.1928 112.14 13.6683 111.627C13.6826 112.43 13.3828 113.206 12.8326 113.791C12.0983 114.489 10.9584 114.691 9.44092 114.37L9.61575 113.547C10.8396 113.805 11.7137 113.683 12.2452 113.198C13.0144 112.461 12.7976 111.104 12.7976 111.104L12.6753 110.361L13.3746 110.647C14.8991 111.271 16.018 111.345 16.6928 110.821C17.5145 110.207 17.5005 108.843 17.4831 108.49L15.2173 104.788L15.9376 104.348L18.3048 108.218V108.309C18.3257 108.358 18.5111 110.165 17.4691 111.233Z" fill="#ED9C9C"/>
<path d="M7.20645 101.151L6.474 101.627L12.7643 111.265L13.4968 110.789L7.20645 101.151Z" fill="#ED9C9C"/>
<path d="M17.1533 95.342L16.4342 95.7805L18.0127 98.3594L18.7319 97.921L17.1533 95.342Z" fill="#ED9C9C"/>
<path d="M135.916 112.744C129.307 112.744 123.618 107.649 122.08 100.352L121.632 98.2375L122.332 98.0944L122.776 100.209C124.244 107.189 129.653 112.046 135.926 112.046C141.521 112.046 146.594 108.04 148.573 102.076L149.909 98.0561L150.573 98.2759L149.238 102.296C147.157 108.546 141.804 112.744 135.916 112.744Z" fill="white"/>
<path d="M101.607 99.0541C101.608 100.875 101.057 102.654 100.029 104.159C98.9999 105.663 97.5404 106.823 95.8409 107.486C94.1414 108.149 92.2808 108.286 90.5025 107.877C88.7241 107.469 87.1105 106.534 85.8727 105.196C87.7033 102.997 89.9966 101.227 92.5897 100.013C95.1827 98.7981 98.012 98.1682 100.877 98.1677H101.576C101.593 98.4574 101.607 98.754 101.607 99.0541Z" fill="white"/>
<path d="M181.588 105.451C180.32 106.717 178.704 107.58 176.945 107.93C175.185 108.28 173.361 108.101 171.703 107.417C170.046 106.732 168.629 105.572 167.632 104.083C166.635 102.595 166.102 100.845 166.102 99.0541C166.102 98.754 166.102 98.4574 166.144 98.1677H166.389C169.307 98.1683 172.188 98.823 174.818 100.084C177.449 101.344 179.763 103.178 181.588 105.451Z" fill="white"/>
<path d="M63.7148 140.719L63.2274 141.22L86.2922 163.589L86.7796 163.089L63.7148 140.719Z" fill="white"/>
<path d="M202.163 143.207L179.623 164.666L180.106 165.171L202.646 143.712L202.163 143.207Z" fill="white"/>
<path d="M95.9044 157.262L100.565 181.969C101.315 185.941 103.327 189.566 106.303 192.309C109.278 195.051 113.06 196.764 117.087 197.194L171.983 203.098H95.9044V157.262Z" fill="#579FAE"/>
<path d="M155.032 140.996C159.564 140.996 163.238 138.486 163.238 135.388C163.238 132.291 159.564 129.781 155.032 129.781C150.499 129.781 146.825 132.291 146.825 135.388C146.825 138.486 150.499 140.996 155.032 140.996Z" fill="white"/>
<path d="M155.032 138.417C158.212 138.417 160.79 137.061 160.79 135.388C160.79 133.716 158.212 132.359 155.032 132.359C151.851 132.359 149.273 133.716 149.273 135.388C149.273 137.061 151.851 138.417 155.032 138.417Z" fill="#9ACEDB"/>
</g>
<defs>
<clipPath id="clip0_30_397">
<rect width="309" height="223" fill="white"/>
</clipPath>
</defs>
</svg>
